<svg xmlns="http://www.w3.org/2000/svg" width="35.002" height="35.002" viewBox="893 1333 35.002 35.002"><g data-name="Group 602"><path d="M910.498 1368.002c-4.672 0-9.065-1.82-12.372-5.127a17.39 17.39 0 0 1-5.126-12.377c0-2.361.463-4.652 1.376-6.809a17.429 17.429 0 0 1 3.75-5.562 17.38 17.38 0 0 1 5.563-3.75 17.32 17.32 0 0 1 6.809-1.377c4.674 0 9.07 1.82 12.377 5.127a17.374 17.374 0 0 1 5.127 12.371c0 4.676-1.821 9.072-5.127 12.377a17.389 17.389 0 0 1-12.377 5.127Zm-3.15-25.002a.325.325 0 0 0-.159.04.358.358 0 0 0-.189.312v14.068c0 .13.074.254.188.314.055.026.115.04.165.04a.378.378 0 0 0 .199-.065l10.197-7.031c.1-.07.154-.174.154-.29a.338.338 0 0 0-.154-.292l-10.197-7.034a.379.379 0 0 0-.204-.062Z" fill="#fff" fill-rule="evenodd" data-name="Exclusion 1"/></g></svg>