<svg xmlns="http://www.w3.org/2000/svg" width="549.878" height="126.131" viewBox="364.136 371.584 549.878 126.131"><g data-name="UI UX"><g data-name="Group 304"><path d="M127.885 350.423c-7.979-3.789-14.168-8.91-18.572-15.367-4.403-6.453-6.605-13.47-6.605-21.052v-84.028h33.315v85.45c0 2.015.7 4.204 2.106 6.573 1.403 2.37 3.572 4.382 6.51 6.04 2.934 1.66 6.51 2.487 10.721 2.487 4.213 0 7.755-.828 10.627-2.487 2.872-1.658 4.978-3.642 6.318-5.952 1.34-2.31 2.01-4.53 2.01-6.661v-85.45h33.698v84.028c0 7.581-2.202 14.599-6.606 21.052-4.403 6.456-10.596 11.578-18.572 15.367-7.979 3.789-17.136 5.684-27.475 5.684-10.339 0-19.499-1.895-27.475-5.684Z" fill-rule="evenodd" fill="url(&quot;#a&quot;)" transform="translate(261.428 141.608)" data-name="Path 429"/><path d="M241.513 229.976V352.91h-32.166V229.976h32.166Z" fill-rule="evenodd" fill="url(&quot;#b&quot;)" transform="translate(273.495 141.608)" data-name="Path 430"/><path d="M357.85 229.976 311.516 352.91H279.35l46.143-122.934h32.357Z" fill-rule="evenodd" fill="url(&quot;#c&quot;)" transform="translate(281.417 141.608)" data-name="Path 431"/><path d="M416.842 350.423c-7.979-3.789-14.168-8.91-18.571-15.367-4.404-6.453-6.607-13.47-6.607-21.052v-84.028h33.315v85.45c0 2.015.7 4.204 2.106 6.573 1.402 2.37 3.572 4.382 6.51 6.04 2.935 1.66 6.51 2.487 10.722 2.487s7.754-.828 10.626-2.487c2.872-1.658 4.978-3.642 6.319-5.952 1.34-2.31 2.01-4.53 2.01-6.661v-85.45h33.697v84.028c0 7.581-2.201 14.599-6.606 21.052-4.402 6.456-10.596 11.578-18.572 15.367-7.978 3.789-17.136 5.684-27.474 5.684-10.34 0-19.5-1.895-27.475-5.684Z" fill-rule="evenodd" fill="url(&quot;#d&quot;)" transform="translate(294.126 141.608)" data-name="Path 432"/><path d="M493.659 229.976h35.23l22.209 38.728 22.401-38.728h34.847l-36.953 61.467 36.953 61.467H573.69l-22.593-38.55-22.401 38.55h-35.038l37.335-61.467-37.335-61.467Z" fill-rule="evenodd" fill="url(&quot;#e&quot;)" transform="translate(305.668 141.608)" data-name="Path 433"/></g></g><defs><linearGradient x1="3.06" y1=".977" x2="3.111" y2=".064" id="a"><stop stop-color="#030504" offset="0"/><stop stop-color="#fff" offset="1"/></linearGradient><linearGradient x1="3.06" y1=".977" x2="3.111" y2=".064" id="b"><stop stop-color="#030504" offset="0"/><stop stop-color="#fff" offset="1"/></linearGradient><linearGradient x1="3.06" y1=".977" x2="3.111" y2=".064" id="c"><stop stop-color="#030504" offset="0"/><stop stop-color="#fff" offset="1"/></linearGradient><linearGradient x1="3.06" y1=".977" x2="3.111" y2=".064" id="d"><stop stop-color="#030504" offset="0"/><stop stop-color="#fff" offset="1"/></linearGradient><linearGradient x1="3.06" y1=".977" x2="3.111" y2=".064" id="e"><stop stop-color="#030504" offset="0"/><stop stop-color="#fff" offset="1"/></linearGradient></defs></svg>